<svg id="pattern_5" version="1.1" xmlns="http://www.w3.org/2000/svg" viewBox="0 0 624 624" width="624" height="624">
    <g fill="%23FFF">
        <path d="M615.6,461.2c-1.4-43-4.1-81.5-3.3-144.8c0.9-76.3,8.6-133.4,2.3-316.3h6.1c0,301.6,3.7,409.1,0.1,617.9c0,1.3-0.1,4.7-0.1,6c-2.1-0.1-6.1-0.1-6.1-0.1C614.7,618.6,618.5,548.8,615.6,461.2z"/>
        <path d="M18.8,623.9C18.8,572,16,449.1,16,449c-1.9-100.8,8.7-200.5,2.8-448.9c2,0,4.1,0,6.1,0c0,459.4,0,623.6,0,623.7C22.8,623.9,20.9,623.9,18.8,623.9L18.8,623.9z"/>
        <path d="M602.9,623.9c0-285.4-0.3-112.2-0.1-623.9h6.1c0,80.7,3.1,108.2,3.3,156.2c0,5.1-5.1,162-4.9,207.1c0.4,90.5,3.8,142.6,3.8,183.6c-0.7,18.2-2.2,1.3-2.2,76.9C607,623.9,605,623.9,602.9,623.9L602.9,623.9z"/>
        <path d="M65.8,624c0,0-2.8-155-2.7-231c0.1-43.5,4.2-86.9,4.9-130.4c0.9-63-2.4-33.7-2.2-262.5h6.1c0.2,227.5,4.5,183.1,3.7,233.1c-0.6,33.8-4.8,67.5-5.5,101.2C69,380.1,71,548.2,71.9,623.9L65.8,624z"/>
        <path d="M577.9,399.7c2.1-116.7,4.5-33,1.3-399.6h6.5c0,0,0.9,184,0.9,274.2c0,159.1-2.7-46.6-0.9,349.7c-2.1-0.1-4.4-0.1-6.5-0.1C579,613.8,575.2,549.4,577.9,399.7z"/>
        <path d="M42.3,623.9c0,0-1-168.9-0.9-253.3c0.1-52.1,1.6-104.2,1.7-156.3c0.1-69.8-0.8-214.1-0.8-214.1h6.1c1.3,264.8-1.3,258.6-1.3,383.2c0,79.5,1.2,239.8,1.2,240.6C46.2,623.9,42.3,623.9,42.3,623.9z"/>
        <path d="M567.8,623.9c0-184.2-6.7-201.6,1-325.5c3.1-49.4,0.7-98.7-0.4-148.1c-1.1-48.8-0.6-150.2-0.6-150.2l6-0.1c0,231.4,4.2,179.1-0.6,337c-2.8,89.6,0.9,73.5,0,126.3c-2,126.2,0.5,149.5,0.6,160.5C573.8,623.8,569.9,623.9,567.8,623.9z"/>
        <path d="M89.1,624c0-189.8-2.9-133.7-5.8-219.6c-3.3-101.3,20.9-135.8,9.2-259.1c-3.8-40-3.3-118-3.4-145.2h6.1c0,26.1,0.2,83.7,1.3,115c2,54.8,14.5,71.7,1.6,160.6c-18.6,130.4-5.8,165.9-3.2,246.7c1,33.8,0.4,67.7,0.4,101.5C93.1,623.9,91.2,624,89.1,624z"/>
        <path d="M438.9,623.9c3.6-39.2-6.7-77-24.1-113.9c-43.1-91.3-7.7-100,30.9-180.2c39.9-82.4,21.3-163.4,2.2-242.8c-12.7-52.6-9-86.4-9-87c0,0,4.2,0,6.2,0c0,1.5-0.2,2.9-0.2,4.1c-6.8,109.2,79.4,210.5-16.8,371.1c-23.3,39.1-32.4,64.6-16,108c8.8,23.3,12.3,25,23.2,59.4c4.8,15.3,7.5,23.9,9,36.6c2.4,20.4,0.8,44.7,0.8,44.7C438.1,623.9,446.4,623.9,438.9,623.9z"/>
        <path d="M124.2,623.9c-0.9-146.2-8.2-138.7-12.2-212.1c-5.8-107.9,38.4-170.3,26.9-244.4c-2.2-14.7-5-29.5-7.9-44.2c-10.4-52.9-5.5-69.6-6.8-123.2h6.2c0,0,0,4.4,0,6.3c0.6,47.7-3.6,68,12.8,137.1c25.2,107.5-48.2,154.9-20.9,336.9c7.1,47.7,7.9,95.7,8.1,143.5C128.3,623.9,126.3,623.9,124.2,623.9z"/>
        <path d="M591.1,623.9c0-193.6-0.6-147.9,0-623.9h6.2c-1.3,651.8,0,489.4,0,623.7C595.1,623.9,593.2,623.9,591.1,623.9z"/>
        <path d="M532.8,623.9c0-192.5-19.3-172.6-4.4-267.8c22.3-142.2,7.1-179.2,4.6-258.6c-1-32.2-0.2-97.4-0.2-97.4l6-0.1c0,0-0.3,78.8,0.8,115.9c2.2,72.5,13.9,106.5-3.3,228.3c-5.9,41.7-8.1,83.4-2.2,125.2c2,64.3,4.7,138.3,4.7,154.5C536.7,623.9,534.9,623.9,532.8,623.9L532.8,623.9z"/>
        <path d="M520.8,623.9c0-221.2-26.5-161.8-2.6-279.2c13.3-65.8,16.1-131.9,7.8-198.1c-5.8-46.5-5.6-95.7-5.3-146.5h6c-1.3,155.4,6.4,119.1,8.5,231.6c2.2,101.9-31.9,145.4-14,250.5c4.5,26.2,6,52.5,5.5,78.9c-0.4,20.9,0,41.9-0.1,62.8C524.8,623.9,520.8,623.9,520.8,623.9L520.8,623.9z"/>
        <path d="M30.6,623.9c0-227.1,0-439.1,0-623.8h6.1c-0.2,373.5,0,27,0,623.8C34.7,623.9,32.7,623.9,30.6,623.9z"/>
        <path d="M183.1,623.9c0,0,0.7-31.7-1.5-47.3c-13.4-99.9-59.8-189.6,15.6-324.5c43.5-78.8,23.3-85.5-8.1-179.7c-7.9-23.5-6-72.2-6-72.2h6c0,0,0.4,36.5,2.5,52.5c4.6,35,26.1,64.6,37.7,113.8c9.7,41.4-20.2,71.1-46,125.7c-42.1,89.6-18.8,174.1-2.3,247.4c11.3,49.7,7.1,66,8,84.3H183.1z"/>
        <path d="M509.1,623.9c-0.4-39.1,2.3-78.3-5-117.2c-14.9-78.2-13.6-92.8-2-141.8c25.9-109.7,22.3-147,10-254.8c-4.2-36-3-110.1-3-110.1h6.4c0,1.5-3.2,76.8,6.7,154.5c8.5,66.6,3.5,132.8-11.3,198.8c-18.4,82-6.9,93.5-0.7,148.3c7.6,69.1,4.7,104.1,5.2,122.3C515.2,623.9,508.8,623.9,509.1,623.9z"/>
        <path d="M450.5,623.9c0-1.5,6.9-26.3-6.5-73.8c-8.6-30.5-8.6-27.8-22.2-60.6c-14.9-35.9-12.2-70.7,7.6-105.3c61.7-108.6,56-173.9,28.5-296.2c-6.4-28.4-8.5-56.9-7.6-85.6c0-0.6,0-1.4,0.1-2.3c1.8,0,4.3,0,6.3,0c-0.2,1.4-0.2,2.6-0.3,3.6c-2.4,40.4,5.5,80.1,14,119.8c29.3,138.2-2,194.1-39.7,274c-13.7,29.2-12.7,58.6-2,88.2c14,38.6,14.9,34.1,22.6,66.1c6.9,28.9,7.8,53.2,5.3,72.1C454.7,623.9,450.5,623.9,450.5,623.9L450.5,623.9z"/><path d="M344.8,623.9c-0.7-66.3-54.2-120.2-65.3-190.6c-6.3-39.8,3.3-80.2,41.2-92.3c40.8-13,61.8-36.9,73-66.6c35.5-93.8-38.9-190-47.6-257.3c-0.7-5.4-1.3-17.1-1.3-17.1h6.3c-0.2,7.5,4.9,47.3,21.2,84.5c21.3,54.1,53,128.5,23.4,197.5c-9.1,21.2-23.4,40.2-48.7,53.8c-5.4,2.9-11,5.7-16.9,7.9c-26.7,9.9-39.2,26.5-43.8,47c-17.9,80.3,63,149.7,64.8,233C349,623.9,346.8,623.9,344.8,623.9L344.8,623.9z"/>
        <path d="M544.2,623.9c-0.1-38.3,0.4-76.8-0.7-115.1c-0.8-26.8-4.3-53.5-5.9-80.3c-4.6-77.4,19-106.8,9.7-275.5c-2.8-49.9-3.1-152.8-3.1-152.8h6.1c0.3,48.5,0.7,101,1.5,142.7c1.1,50,8.2,69.2-3.4,197.9c-8.8,98.4,1,114.6,1.7,183c0.5,33.3,0.1,66.8,0.1,100.1C548.3,623.9,546.3,623.9,544.2,623.9L544.2,623.9z"/>
        <path d="M54,623.9c0.3-6.6-1.7-150-1.6-246.8c0.3-122.1,5.9,27.6,1.6-377h6.1c-0.7,226.6,2.9,184.1,2.2,247c-0.5,42.2-4.2,84.5-4.3,126.7c-0.1,97.2,2,208.9,2,250C58,623.9,56.1,623.9,54,623.9L54,623.9z"/>
        <path d="M112.6,624c-0.4-12.9,3.5-35.7-7-159.5c-3.8-45.3-5.2-90.5,1.6-135.7C120.6,239.9,133,215.4,120,143c-10.9-59.7-6.3-83.2-7.3-142.8h6.1c0.8,52.7-3.4,86.2,8.9,142.2c9.4,42.7,5.6,85.1-4.2,127.5c-28.2,121.7-11.9,174.4-8.4,234.5c1.9,30.9,2.6,61.7,3.7,92.6c0.3,8.9,0,27,0,27H112.6z"/>
        <path d="M202.6,569.9c-27.4-119.5-63.9-203.1,26-323.6c45.6-61.4,28-80.8-8.2-163.5c-17.9-41-13.7-75.8-14-82.7h5.9c0,0,1.8,51.8,12.6,75.6c7.3,17.2,27,56.9,36.1,86.5c7.7,25.3,2.2,49.3-15.2,72c-38.3,49.7-64.5,81.2-69.3,157.2c0,0-2.3,36,6.9,81.1c9.1,44.9,31,83.9,28.8,151.4c-2.1,0-3.8,0-5.9,0C206.5,605,205.9,584.5,202.6,569.9z"/>
        <path d="M218.1,623.9c0.4-23.9-2.2-47.6-8.7-71c-16-57.1-32.3-107.9-28.7-165.9c2.8-47,20-90.7,54.6-130.7c4.9-5.6,9.4-11.5,14.4-17.1c22.9-25.8,28.1-53.7,17.1-82.8c-8-21.3-17.9-42.2-27.7-63.2C213.2,39,218.7,6.3,218,0h5.7c-0.5,30.4,5.6,52.7,11.6,67.7c6.5,16.4,20.9,44.7,31,63.3c3.5,6.4,10,18.1,13.7,35c8.6,37.1-3.4,52-27.9,80.3c-15.8,18.3-38.4,42.8-50.5,70.8c-37.7,87-3.8,170.4,10.7,226.9c0,0,11.5,44.8,11.5,76.8v3l0,0C223.7,623.9,220.2,623.9,218.1,623.9L218.1,623.9z"/>
        <path d="M77.5,623.9c0,0-0.3-137.1-3.8-205.5c-2.5-47.9,1.3-95.7,6.2-143.5c7.4-72.8-4.7-89.6-2.3-274.9h6c-0.5,145.7,1.5,132.2,5.5,187.2C95,270.9,69.8,321.7,82,478.1c3,37.4,1.4,87.9,1.7,145.6L77.5,623.9z"/>
        <path d="M253.3,623.9c0-70.1-52.7-143.2-48.3-230.6c2.7-57.9,27.7-101.8,75.7-132.6c30.6-19.7,40.7-44.4,36.3-72.9c-1.4-8.9-2.6-17.9-6.2-26.4C270.3,66.2,253.4,53.6,253.4,0.1c1.9-0.1,3.6,0.1,5.7-0.1c1.4,20.5-0.5,36.8,25.3,88.4c18.5,37.1,43.3,79.4,40.4,121.4c-1.5,21.5-13.3,39.1-36.2,52.9c-43.6,26.2-70.6,60.3-77.7,114c-5.4,41.1,2.7,81.3,15.8,121.1c31,94.3,28.7,78.3,32.2,122.8c0.1,1.4,0.2,2.5,0.3,3.3C258.6,623.9,253.9,623.9,253.3,623.9L253.3,623.9z"/>
        <path d="M101,623.9c-2.3-205.1-6-156.7-7.8-233.5c-2.2-95.6,29.8-142,12-251.9c-5-30.8-4.6-57.9-4.2-138.4h6c-1.1,100.7,1.1,107.3,8.4,159.9c5,35.2,2.7,70.2-3.5,105.1c-24.4,136.8-10.8,150.5-6.8,246c1.5,36.6,2,111.9,1.8,112.8C105.3,624,101,623.9,101,623.9z"/>
        <path d="M402.6,623.9c0-5.8,1.5-12.2-0.4-25.7c-2.6-18.6-10.1-44.9-23.6-73c-15-31.7-26.1-46.8-31.8-81.4c-11.7-68.9,83.6-75.6,96.8-198.4c7.6-71-19.7-131.4-36.8-204.7c-3-13-4.2-40.6-4.2-40.6h7.7c0,0-0.5,16.8,0.1,25c6.2,81.8,97.5,221.2-23.8,348.4c-10.7,11.2-20.7,22.8-26.6,36c-17.7,40,7.3,71.9,30.5,126.1c20,47,19.9,66.5,19.9,88.5c-1.3,0-2.5,0-3.8,0C405,623.9,402.6,623.9,402.6,623.9L402.6,623.9z"/>
        <path d="M215.1,537.4c-18.7-61.4-44.6-140.6-9.2-219.6c11.8-26.3,31.4-49.5,54.2-71.3c50.9-48.9,23.4-89.1-10.9-161.5c-25-52.7-18.5-80-19.1-84.9l6.8,0.1c0,0-0.7,16.5,0.1,24.5c2.6,25.8,14,50.1,26.1,74.2c19.4,38.5,48.3,90.2,24.1,125.9c-7.6,11.2-17.6,21.7-28.5,31.4C121.5,379,242,541.5,236.8,623.9c-0.1,0-4.7,0-6.8,0C229.3,617.2,234.8,601.9,215.1,537.4z"/>
        <path d="M159.6,623.9c1.5-36.9-1.2-73.7-8.5-110.3c-36-180.5,13.9-220.9,35.4-309.7c10.5-42.5-16.4-84.2-25-139.4c-3.2-20.4-2-64.5-2-64.5h5.9c0,0,0,3.6,0,5.2c0.2,24.5-1.7,49.2,5.1,73.4c4.9,17.7,10.1,35.3,16.6,52.7c13.7,36.3,12.8,72-3.4,107.8c-13.4,29.5-25.7,59.2-32.7,90c-17.6,77.4-4.1,136.7,9.9,211.1c5.2,27.8,4.6,55.8,4.5,83.6C163.5,623.9,161.7,623.9,159.6,623.9L159.6,623.9z"/>
        <path d="M497.5,623.9c-0.1-13.8-0.4-27.7,0-41.5c0.9-28.8-2.2-57.3-10.4-85.4c-13.5-45.9-10.7-91.3,3.4-136.9c23.4-75.4,28.4-128.3,12.5-240.3c-5.7-39.3-5.5-119.7-5.5-119.7h6c0.4,119.5,4.5,110.4,10.8,171.7c10.3,97.2-10.1,153.8-25,223.4c-15,70.1,18,99.1,14.3,198.6c-0.4,10-0.2,20.1-0.1,30.1C501.4,623.9,499.6,623.9,497.5,623.9z"/>
        <path d="M556,623.9c0-0.2-0.3-121.1-1-138.3c-5.7-127.2-5.3-62.3,4.3-213.5c2.8-45.8-1.2-91.5-2.4-137.2c-1.2-43.8-0.9-135-0.9-135h6c0.3,30.2,2.4,256.4,1.9,286.6c-0.5,28.6-4.6,57.2-4.8,85.8c-0.5,63.7,2.8,16.8,2.8,251.5C560,623.9,558,623.9,556,623.9L556,623.9z"/>
        <path d="M195,623.9c-0.8-38-6-72.7-14.8-108.4c-25.5-101.3-26.2-177.8,31.4-265.2c44.1-67.1,29.9-81.5-4.2-164.3C196,58.2,195,0.1,195,0.1h5.3c0,0,0.3,2.7,0.4,3.9c1.1,15.9,1,31.8,3.5,47.6c5.4,33.2,26.5,62.8,40,107.7c24.6,81-87.6,106-75.5,266.7c3,40.4,13.9,79.9,23.8,119.5c6.3,25.8,5.5,50.9,7.8,78.4C198.5,623.9,196.8,623.9,195,623.9z"/>
        <path d="M474.8,623.9c2.9-44.9-3.6-89.4-20.1-132.9c-14.3-37.6-11.1-74.8,4.4-112c61.3-147,28.3-208.2,16.4-316.8C473.2,41.9,475,0.1,475,0.1h5.1c1.4,33.9-5,40.3,9.4,123.6c28.3,160.4-12.2,206.4-33,290.5c-12.8,51.8,20.3,96.1,22.9,149.1c1,20.1,0.5,40.4,0.7,60.6C477.9,623.9,476.9,623.9,474.8,623.9z"/>
        <path d="M288.2,623.9c-0.8-36.9-16.6-71.6-30.6-106.4c-24.6-61.6-43.1-129.2-9.1-186.5c11.4-19.2,28.2-35.4,55.6-43.8c28.2-8.7,41.7-24.8,47.7-45.3c22.4-77.3-53.8-158.3-62.4-225.4c-0.7-5.2-1.2-16.5-1.2-16.5s4.1,0,6.2,0c0.2,64.2,54.7,120.1,65.5,193.4c3.2,22,2.4,43.9-7.8,65.1c-7.8,16-21.5,27.5-44.3,33.6c-30.3,8.1-46.8,25.7-57.9,46.4c-14,26.1-16.7,53.3-14.4,80.9c6.5,78.9,59,142.1,59,204.5C292.3,623.9,290.3,623.9,288.2,623.9L288.2,623.9z"/>
        <path d="M390.7,623.9c0-35.4-9.8-62.5-26.6-99.2c-15.3-33.2-22.8-40.8-28.9-66.6c-2.8-11.9-4.2-24.1-3.9-36.1c1.7-61.3,116.1-65,104.4-224.3c-2.1-26.6-7.4-45.6-13.7-67.7c-16.4-57.9-31.3-72.3-31.3-130.1h8.3c0,0-0.8,18,0.1,26.7c5.8,53.8,40.7,114.1,41.7,190.3c1.8,142.3-106.1,150.3-102.1,215c0.8,11.6,2.3,23.4,6.5,34.5c23.5,62,56.9,101.4,53.8,157.1C396.9,623.9,392.8,623.9,390.7,623.9L390.7,623.9z"/>
        <path d="M427.3,623.9c0-67.2-20.1-91.5-43-151.3c-11.7-30.8-5.2-59.9,15.8-87.8c40-53.2,65.8-102.7,60.5-184.2c-5.1-80.3-36.1-124.7-33.2-200.5l6.1-0.1c0,0-0.1,46.7,6.7,73.5c6,25.4,12.6,50.7,17.8,76.2c33.6,164.8-52.9,217.8-68,271.5c-9.8,34.9,7,63,28.8,114.4c0,0,14.2,41,14.7,74.3c0.1,5.7,0,9.6,0,13.8C428.6,623.7,430.5,623.9,427.3,623.9L427.3,623.9z"/>
        <path d="M462.5,623.9c0,0,0.1-30.4-0.6-45.6c-1.2-27-10.8-52.9-20.3-78.9c-20.4-56.1-16.3-75.6,8.4-129.3c53.7-116.7,37.7-175,16.8-289.6C462,54,462.5,0,462.5,0h5.8c0,0,0.8,50.7,3.3,74c2.4,22.3,7.6,44.5,11.4,66.7c33.6,193.7-59.9,239.2-44.3,317c3,15.1,7.1,30.2,12.4,44.9c22.8,63.9,16.6,96,17.1,121.2C466.2,623.9,462.5,623.9,462.5,623.9L462.5,623.9z"/>
        <path d="M367.3,623.9c-2.3-9.3-1.7-41.2-16.2-74.4c-16.4-36.6-93.6-145.9-12.3-190.1c52.1-28.4,73.7-67.8,79.7-113c6.5-48.9-5.9-89.2-17-122.8c-8.1-24.5-27.1-74.1-30.7-99.6c-0.1-0.6-3.4-23.8-3.4-23.8h6.3c4.2,54.2,19.6,81.3,29.3,107c7.1,18.7,23.2,62.2,21.6,114.7c-1.8,59.5-21.4,103.8-73.3,136.6c-18.8,11.9-34.6,25.1-39.3,43.7c-9.2,37.3,8.6,73.2,25.5,109c23.5,50,31.3,57.6,36.2,113C371.4,623.9,369.4,623.9,367.3,623.9L367.3,623.9z"/>
        <path d="M147.8,623.9c-1-57.2,2.8-56.8-11.5-141.5c-12.9-76.2-6.8-151.4,20.8-225.7c16.7-44.7,21.5-78.9,6.1-124.3C143.8,75,148,23.7,147.8,0h6.1c-0.7,22.3,0.5,44.9,2.8,63.4c2.9,23.6,6.8,29.7,15,64c15.6,65.3,14.4,66.9-4.1,118.6c-3.2,9-20.7,56-27.2,89.6c-15.7,82.2,1.8,142.5,11.5,215.9c2.7,20.3,1.9,66.2,2,72.4C151.8,623.9,149.9,623.9,147.8,623.9L147.8,623.9z"/>
        <path d="M415.4,623.9c0-1.2,0.3-11.2-0.2-24c-1.3-32.5-24.8-81.6-24.8-81.6c-14.2-30.1-23-37.7-28-62.3c-2.5-12.2-3.2-22.4-0.7-33c6.3-25.6,30.3-47.6,51.1-74c12.2-15.6,18.5-29.8,22.7-39.4c47.1-108.3-15.1-215.4-19.7-283.3c-0.5-7.6-0.5-26-0.5-26h6.3c-1.3,77.8,25.2,106.6,34.1,190.3c6.8,63.9-7.3,124.6-52.4,180.7c-40.3,50.5-40.5,69.3-20.3,115.8c26.8,62.2,38.5,77.2,38.5,136.8C419.5,623.9,417.4,623.9,415.4,623.9L415.4,623.9z"/>
        <path d="M299.3,623.9c-2.2-23.9-8.3-51.1-18.3-75.8c-2.1-5.2-21.6-44.6-27.6-62.1c-12.6-36.6-20.4-87.2-7.5-126.8c10.1-30.7,32.7-55.4,62.8-61.6c26-5.2,39.9-18.5,48.1-35.9c11.8-24.7,11.4-50,6.7-75.5c-10.8-58.9-49.4-109-60.2-157.9c-2-9.1-4.2-28.2-4.2-28.2l4.8-0.1c6,64.5,32.1,82.6,56.7,155.3c13.1,39.1,18.2,84.9-4.5,119.5c-9.4,14.4-23.4,24.5-45.9,28.4c-23.1,4-36.6,16.9-46.8,31.5c-14.4,20.6-19.2,42.8-19.7,65.6c-1.9,74.8,46.5,139.7,53.7,177.7c2.3,12,4.6,26.8,6.5,45.9C302.5,623.9,300.9,623.9,299.3,623.9L299.3,623.9z"/>
        <path d="M332.9,623.9c-6.6-59.3-14.2-61.2-38.8-115.5c-13.8-30.5-25.7-61.2-27.2-93.5c-0.9-20.3,1.6-40.3,13.3-59.1c8.4-13.5,21.3-23.2,41.5-27.8c28.1-6.3,44-21.8,55.2-40.3c14.8-24.6,18.3-50.5,17-76.9c-3.6-71.6-47.2-131.1-57.9-185.2c-1.4-7.2-3.1-25.5-3.1-25.5h6.1c0,0,0.5,6.4,0.8,9.5c4.2,52.9,43.1,106.6,55.3,172.7c9.1,49.1,2.5,102-35.8,133.5c-8.6,7.1-18.5,13.2-30.7,16.2c-32.4,8-46.2,26.1-52.5,48.6c-7,25-3.8,49.8,3.1,74.4c3.4,12,14.5,36.9,36.9,86.8c15.4,34.3,19.6,52.6,22.9,82.1C336.9,623.9,335,623.9,332.9,623.9L332.9,623.9z"/>
        <path d="M241.4,623.9c-0.6-17.9-1.7-35-6.3-52c-20.6-75.7-49.7-133.7-34.8-209.8c7.8-39.9,28.9-75.3,66.2-105.5c27.6-22.2,40.3-39.9,35.5-75.4c-2.7-19.6-8.8-30.6-23.8-61.7c-24.4-50.6-28.1-62.8-29.8-69.2c-5.6-20.7-6.9-38.4-7.1-50.2h6.5c-5.2,88.9,97.3,163.6,54.1,232.7c-3,4.8-6.4,8.7-17.7,18.7c-29.2,25.9-69.5,45.8-81,118.5c-7.3,45.5,1.9,90,15.9,134.2c17.5,55.4,32.2,98.6,28.7,119.7C245.9,623.9,243.3,623.9,241.4,623.9L241.4,623.9z"/>
        <path d="M276.9,623.9c0-37.8-15.7-67.5-36.5-126.1c-23.8-66.5-32.1-142,16.7-193.3C267,294.1,279,285,294.2,279c35.7-14,48.4-36.7,49.6-64.4c0.7-15.3-0.3-35.1-15.5-71.9C313,105.6,302.4,96.3,287.8,60c0,0-11.1-27.8-11.1-51.1V0h5.7c0,68.4,42.6,98.4,62.7,168.6c18.7,65-7.2,89-7.6,91.3c-7.1,9.1-14.8,13.8-17,15c-7.4,4.2-13.7,5.4-16.9,6.2c-22.9,5.5-40.8,23.9-45.8,29.3c-26.8,28.6-43.6,84.5-23.4,151.5c27.3,90.9,48,110.6,48,161.7c-1,0-1.9,0-2.9,0C278.9,623.9,278,623.9,276.9,623.9L276.9,623.9z"/>
        <path d="M356.7,623.9c0-0.1-4.5-27.4-7.8-43c-14.7-70.3-74.3-119.5-56.5-189.1c4.4-17.3,15.1-31.9,36.6-41.1c50.3-21.5,71.2-55.7,79.2-95.4c17.6-86.8-38-167.3-47-225.5c-0.2-1.3-4.6-29.7-4.6-29.7h6.2c10.1,75.1,38.5,113.6,48.6,176.4c4.2,25.9,9.3,63.5-5.8,104.1c-11,29.5-31.5,54.5-67.1,71.8c-30,14.6-41.7,35.4-42.5,60.5c-1.8,52.3,32.1,98.8,44,125.4c13.1,29.7,21.6,69.3,22.8,85.5C360.9,623.9,358.8,623.9,356.7,623.9z"/>
        <path d="M264.9,623.9c0.9-25.7-7.4-50.6-15.7-75.4C223.3,471.4,197,412.7,223.5,342c10.5-28.2,29.6-52.6,61.9-71c12.9-8,48.8-22.2,45.9-71.3c-0.6-10-1.7-31.4-25.1-79.9C286.5,78.7,265,54.1,265,0.1l5.6,0.1c-0.1,7.7,0.4,19.2,3.1,32.6c8.3,40.7,45.9,86.1,61,140c9.1,32.2,4.2,58.3-4.7,73c-16.5,26.8-43.8,26.5-70.6,50.3c-16.6,14.6-31.6,38.7-38.3,70.2c-21.2,100.1,50.2,179.2,49.5,257.6C268.4,623.9,267,623.9,264.9,623.9L264.9,623.9z"/>
        <path d="M380.5,623.9c0-0.1-0.3-8.4,0-11.1c0-32.2-19.1-66.6-35.9-100.2l0,0c-11.7-23.8-24.1-48.4-27.5-74.4c-4.1-31.5,2.4-50.9,37.1-74.8c21.5-14.8,43.7-39.7,54.4-58.3c10.6-18.6,13.2-34.8,16.1-53.2c9.2-58.4-6-107.9-11.7-125.7c-10.2-32-19.2-41.6-26.6-78.4c-4-19.9-5.4-36.6-5.9-47.6c1.8-0.1,5.4,0,5.4,0c1.3,81.3,40.6,111.2,45.9,199.5c0.6,11,4.8,81.6-25,120c-46.9,60.4-97.5,63.4-79.7,133.9c5.8,23.4,17.4,45.5,28.7,67.7c9.7,19,25.6,52,27.9,69.7c1.2,9.4,2.3,23.6,2.3,33.1C383.8,623.9,382.6,623.9,380.5,623.9L380.5,623.9z"/>
        <path d="M170.3,623.9c0.8-109.5-29.2-159.3-22.4-246.7c5.9-76.7,40-122.4,55-174.4c12.1-42.2-18-84.6-28.7-140.6C170.3,42,170.3,0,170.3,0h7.1c0,0-0.2,27.2,0.2,39c1.5,42.6,24.8,80.5,35.2,127.5c8.7,39.5-16.3,69.4-39.3,124c-38.4,91-18.2,173.2-2.1,249.3c5.8,27.2,6.3,83.4,6.1,84C175.7,623.9,172,623.9,170.3,623.9L170.3,623.9z"/>
        <path d="M142.1,623.9c-1.7,0-4.3,0-6,0c0-6.8-1.1-66.9-3.4-97.3c-4.9-64.1-29.1-132,9.3-260.6c16.8-56.3,19.6-70.9,3.9-140.9c-15.4-69.3-7.8-75.3-9.8-125.1h6c0,0-0.2,41.2,0.2,59.9c0.6,24.5,6.3,48.6,13.6,72.4c12.3,40.4,10.1,80.2-3.3,120.2c-48.2,143.6-19.7,205-11.9,297.2c2.1,24.6,1.3,49.3,1.4,74"/>
        <path d="M486.1,623.9c0-0.6,0.1-1.4,0.1-2.4c0-1.9-0.2-3.3-0.2-3.6c-0.4-3.9-0.5-31.7-0.8-42.5c-0.6-30.3-4.9-52.8-14.6-83.4c-12.6-39.9-10.4-79.2,3.6-118.7c51.2-143.5,22.3-203.8,12.3-312.4c-1.8-20-0.3-61-0.3-61h5.6c-1,58.2,0.3,78,11.1,149.3c11,72.9,4.3,144.8-19.4,216.1c-8.2,24.8-15.7,49.9-13.1,75.5c6.4,61.5,23.9,83.6,21.4,153.8c-0.4,9.7,0.1,19.5-0.1,29.2C490,623.9,487.8,623.9,486.1,623.9L486.1,623.9z"/>
        <path d="M13,161C11.1,84.1,11.4,5.1,11.7,0.1c-1.7,0-3,0-4.7,0l0,0H2.8c1.2,254.1,0.8,614.7,0,623.7c2.3,0,4.9,0,8.9,0c0-9.4,1.3-55.2-0.7-131.9C8.4,392.9,16,285.8,13,161L13,161z"/>
        <path d="M311.5,623.9c0-70.9-69.2-141-62.8-229.8c3-43.7,25.7-81.5,70.5-87.3c17-2.2,27.7-11.5,36.1-21.7c42.6-51.4,7.8-133.1,6.9-139c-16.9-45.6-38.3-72.5-46.9-116C313,18.2,311.5,2.2,311.5,0h4.6c1.4,59.8,31.7,84.2,53.5,152c15.9,51.1,18.9,116.1-24.3,148.7c-25.1,18.8-43.9,3.3-70.1,33.7c-13.5,15.6-19.3,33.1-21.8,51.2c-12.8,90.9,63,165.6,62.6,238.1C314.5,623.9,313.1,623.9,311.5,623.9z"/>
        <path d="M327.6,0.1c1,64.4,54.2,124.5,61.3,203.2c2.6,28.9-0.4,57.2-17.3,84.1c-6.5,10.3-15,19.8-27.6,26.6c-6.4,3.5-13.8,6.8-21.5,8.1c-24.8,4.3-39,16.3-48.1,32.3c-44,77.2,36.6,182.4,48.8,236.8c2.7,12.2,4.3,28,4.3,32.7c-2,0-4,0-6,0c0-55.9-51.1-121.5-62.5-188.3c-4.8-28.1-4.9-56,9.7-82.9c4.2-7.8,10.7-15.1,17.4-21.9c6.7-6.8,16.2-11.7,27.8-13.1c40.6-4.9,63.4-38.5,69.1-77.2C396.4,148.1,321.5,71.4,321.5,0C323.7,0,325.3,0.1,327.6,0.1L327.6,0.1z"/>
    </g>
</svg>