<svg id="" viewBox="0 0 1300 600">
	<path id="pattern_2" d="M318.24,115.62c-17.84-40.28-51.85-68.18-99-84.93-8.4-3-40.86-19.26-54.33-30.69,0,0,.05,0,.05.05l-.07,0c-13.46,11.43-46,27.71-54.39,30.69C63.3,47.44,29.26,75.34,11.41,115.62,1.45,138.09.26,163.05,0,187.34c-.21,21.36.83,42.71,1.3,64.07.13,6,1.76,10.6,8.75,14.43,9.08,5,10.66,14.33,11.76,23,2.83,22.5-1.15,44.07-10.63,65.29-11,24.6-3.54,39.49,19.6,59.21C59.75,438,142.3,479.8,142.3,479.8S127.07,361.42,117,303a84.8,84.8,0,0,1-1.13-8.68c-1.25-18.19-3.91-34.26-31.21-38.18-13.8-2-45.73-32.15-45.73-32.15l22.92-17.12,75.7,5.13s11.67,6.28,10.41,12.35c-2.55,12.33-1.11,25.76-9.39,36.66-8.92,11.75-6.25,20.66,3.72,31,10.44,10.82,16.53,17.59,22.58,17.59h0s0-.31,0-.31v.07c0-1,12-6.67,22.44-17.46,10-10.34,12.64-19.14,3.72-30.9-8.27-10.9-6.82-24.31-9.38-36.64-1.25-6.08,10.42-12.35,10.42-12.35l75.7-5.13L290.7,224S258.77,254.19,245,256.16c-27.3,3.92-30,20-31.21,38.18a84.8,84.8,0,0,1-1.13,8.68c-10.08,58.4-25.3,176.78-25.3,176.78S269.88,438,298.81,413.38c23.14-19.72,30.6-34.61,19.61-59.21C308.94,333,305,311.38,307.79,288.88c1.09-8.71,2.68-18.06,11.76-23,7-3.83,8.62-8.38,8.75-14.43.47-21.36,1.52-42.71,1.31-64.07C329.38,163.05,328.2,138.09,318.24,115.62Z" fill="#d30006"/>
</svg>