<svg id="" viewBox="0 0 1300 600">
    <path id="pattern_4" d="M221,28.07h0A44.36,44.36,0,0,0,275.24,54.2h0c38.48-11.78,71.51,29.64,51.46,64.53h0a44.37,44.37,0,0,0,13.4,58.71h0c33.21,22.74,21.42,74.39-18.36,80.46h0A44.37,44.37,0,0,0,284.19,305h0c2.93,40.13-44.8,63.12-74.36,35.81h0a44.36,44.36,0,0,0-60.22,0h0c-29.56,27.31-77.29,4.32-74.36-35.81h0A44.38,44.38,0,0,0,37.7,257.9h0c-39.78-6.07-51.57-57.72-18.36-80.46h0a44.37,44.37,0,0,0,13.4-58.71h0C12.69,83.84,45.72,42.42,84.2,54.2h0a44.36,44.36,0,0,0,54.25-26.13h0C153.23-9.36,206.21-9.36,221,28.07Z" fill="#e30006"/>	
</svg>