<svg id="svg" version="1.1" xmlns="http://www.w3.org/2000/svg" viewBox="0 0 1300 600" width="624" height="624">
	<path id="pattern_1" d="M50,0C22.4,0,0,22.4,0,50c0,27.6,22.4,50,50,50s50-22.4,50-50C100,22.4,77.6,0,50,0z M57.5,31.3
      c0.5,4.4-3.6,9-7.6,8.4C49,36.2,53.7,31,57.5,31.3z M60.9,66.1c-4.7,5.4-7-1.5-14,1.5c-2.7,1.2-4.4,0.8-6.4-1.4
      c-4.1-4.5-6.3-9.8-6.1-16c0.1-4.5,2.8-8.2,6.8-9.5c5.3-1.7,6.9,2.2,10.6,0.8c1.2-0.5,2.5-1,3.8-1.2c3.5-0.5,6.4,0.5,8.7,3.3
      c0.1,0.1,0.1,0.1,0.1,0.2c-6,3.8-5.1,11.8,1.1,14.6C64.6,60.6,64,62.7,60.9,66.1z" />
    <path id="pattern_2" d="M318.24,115.62c-17.84-40.28-51.85-68.18-99-84.93-8.4-3-40.86-19.26-54.33-30.69,0,0,.05,0,.05.05l-.07,0c-13.46,11.43-46,27.71-54.39,30.69C63.3,47.44,29.26,75.34,11.41,115.62,1.45,138.09.26,163.05,0,187.34c-.21,21.36.83,42.71,1.3,64.07.13,6,1.76,10.6,8.75,14.43,9.08,5,10.66,14.33,11.76,23,2.83,22.5-1.15,44.07-10.63,65.29-11,24.6-3.54,39.49,19.6,59.21C59.75,438,142.3,479.8,142.3,479.8S127.07,361.42,117,303a84.8,84.8,0,0,1-1.13-8.68c-1.25-18.19-3.91-34.26-31.21-38.18-13.8-2-45.73-32.15-45.73-32.15l22.92-17.12,75.7,5.13s11.67,6.28,10.41,12.35c-2.55,12.33-1.11,25.76-9.39,36.66-8.92,11.75-6.25,20.66,3.72,31,10.44,10.82,16.53,17.59,22.58,17.59h0s0-.31,0-.31v.07c0-1,12-6.67,22.44-17.46,10-10.34,12.64-19.14,3.72-30.9-8.27-10.9-6.82-24.31-9.38-36.64-1.25-6.08,10.42-12.35,10.42-12.35l75.7-5.13L290.7,224S258.77,254.19,245,256.16c-27.3,3.92-30,20-31.21,38.18a84.8,84.8,0,0,1-1.13,8.68c-10.08,58.4-25.3,176.78-25.3,176.78S269.88,438,298.81,413.38c23.14-19.72,30.6-34.61,19.61-59.21C308.94,333,305,311.38,307.79,288.88c1.09-8.71,2.68-18.06,11.76-23,7-3.83,8.62-8.38,8.75-14.43.47-21.36,1.52-42.71,1.31-64.07C329.38,163.05,328.2,138.09,318.24,115.62Z" fill="#d30006"/>
    <polygon id="pattern_3" points="259.62 0 351.4 167.83 519.23 259.62 351.4 351.4 259.62 519.23 167.83 351.4 0 259.62 167.83 167.83 259.62 0" fill="#d30006"/>
    <path id="pattern_4" d="M221,28.07h0A44.36,44.36,0,0,0,275.24,54.2h0c38.48-11.78,71.51,29.64,51.46,64.53h0a44.37,44.37,0,0,0,13.4,58.71h0c33.21,22.74,21.42,74.39-18.36,80.46h0A44.37,44.37,0,0,0,284.19,305h0c2.93,40.13-44.8,63.12-74.36,35.81h0a44.36,44.36,0,0,0-60.22,0h0c-29.56,27.31-77.29,4.32-74.36-35.81h0A44.38,44.38,0,0,0,37.7,257.9h0c-39.78-6.07-51.57-57.72-18.36-80.46h0a44.37,44.37,0,0,0,13.4-58.71h0C12.69,83.84,45.72,42.42,84.2,54.2h0a44.36,44.36,0,0,0,54.25-26.13h0C153.23-9.36,206.21-9.36,221,28.07Z" fill="#e30006"/>
    <path id="hippo" class="st1" d="M148.802,244.876c2.737-36.735,16.107-69.079,40.099-97.061
    c27.038-31.596,60.924-47.386,101.629-47.386c15.481,0,38.483,2.447,69.024,7.287c30.541,4.886,53.533,7.278,69.033,7.278
    c23.693,0,57.868,8.847,102.526,26.477c7.914,3.009,17.471,11.239,28.701,24.59c6.381,7.886,16.256,19.769,29.616,35.568
    c3.036,2.139,6.998,5.316,11.865,9.595c4.859,4.223,8.194,6.063,9.997,5.456c0.616-1.84,2.149-4.4,4.578-7.735
    c1.214-1.225,1.962-1.832,2.261-1.832c0.935,0.607,1.831,1.215,2.747,1.832c0.906,0.616,1.205,2.419,0.906,5.456
    c-0.616,5.474-0.906,7.138-0.906,4.998c-0.327,3.056-0.757,5.008-1.373,5.952c-3.952,6.671-5.485,11.847-4.55,15.472
    c0.916,3.325,3.765,8.669,8.642,15.958c4.868,7.287,7.586,12.761,8.193,16.405c-0.299,2.728-0.43,7.119-0.43,13.211l-4.568,11.379
    c0,8.512,9.865,23.114,29.616,43.78c9.436,4.223,14.117,18.826,14.117,43.714c0,19.47-16.089,29.167-48.273,29.167
    c-4.26,0-8.81-0.13-13.678-0.467c-3.335-1.196-8.203-2.56-14.575-4.074c-7.586-0.934-12.761-3.494-15.48-7.773
    c-4.877-6.95-12.781-13.509-23.711-19.581c-1.823-0.878-4.485-4.223-7.979-10.016c-3.503-5.774-6.615-9.418-9.333-10.949
    c-2.719-1.495-6.68-1.813-11.856-0.878c-8.81,1.494-13.677,2.261-14.574,2.261c-2.139,0-5.25-0.598-9.343-1.831
    c-4.11-1.215-7.054-1.831-8.893-1.831c-2.112,9.735-2.589,19.152-1.364,28.252c0.298,2.448,1.831,4.428,4.559,5.923
    c4.27,3.046,6.531,4.709,6.849,5.045c2.718,2.111,5.615,5.605,8.642,10.445c0.616,1.849-0.523,4.952-3.419,9.342
    c-2.887,4.41-5.223,7.008-7.063,7.736c-1.813,0.785-5.765,1.178-11.847,1.178c-8.82,0-12.295,0.131-10.464,0.43
    c-12.145-1.831-18.984-2.878-20.516-3.158c-7.587-1.532-14.126-3.943-19.582-7.305c-2.756-1.813-5.913-10.333-9.557-25.524
    c-3.681-16.406-6.717-26.272-9.137-29.635c-0.598-0.896-1.355-1.326-2.261-1.326c-1.533,0-4.045,1.494-7.53,4.559
    c-3.494,2.99-5.858,4.652-7.054,5.008c-4.242,17.9-6.4,26.402-6.4,25.468c0,7.007,1.972,12.892,5.924,17.77
    c3.943,4.858,8.063,9.567,12.323,14.107c5.157,5.774,7.736,10.782,7.736,15.042c0,2.41-0.748,4.521-2.28,6.372
    c-6.381,7.885-17.022,11.847-31.905,11.847c-16.713,0-27.644-2.28-32.792-6.839c-6.699-5.774-10.949-11.865-12.762-18.199
    c-0.298-1.533-1.055-6.091-2.28-13.678c-0.607-4.578-1.98-7.287-4.082-8.184c-6.101-0.916-13.687-2.578-22.778-5.007
    c-1.841-1.215-3.811-4.26-5.942-9.118c-3.933-9.399-6.83-15.789-8.661-19.134c-9.128-4.56-23.702-9.698-43.761-15.453
    c-0.916,1.831-1.345,4.373-1.345,7.718c3.335,4.26,8.343,10.8,15.032,19.581c5.466,7.288,8.203,14.295,8.203,20.965
    c0,12.781-8.203,19.134-24.609,19.134c-12.453,0-20.955-0.878-25.523-2.709c-6.671-2.728-12.295-9.136-16.854-19.134
    c-7.596-16.742-11.847-26.159-12.762-28.27c-4.868-11.231-8.204-21.133-10.006-29.653c-1.233-6.055-3.064-15.35-5.485-27.804
    c-2.121-10.296-5.456-18.358-10.015-24.132C155.332,279.36,147.578,260.665,148.802,244.876z"/>
    <path id="elephant" class="st1" d="M446.47,99.669c12.095,0,23.828,7.003,35.234,20.993c11.378,13.989,17.971,20.993,19.755,20.993
        h17.116c36.996,0,65.654,18.517,85.956,55.547c5.35,10.365,13.524,25.586,24.584,45.697c11.01,20.144,23.856,35.008,38.464,44.628
        c16.366,10.694,32.917,16.59,49.644,17.631c7.819,0.361,16.394-1.073,25.657-4.298c8.186-3.58,16.36-7.172,24.54-10.754
        l5.344,11.859c-26.337,20.215-51.436,30.64-75.297,31.363c-25.619,0.712-53.231-5.514-82.764-18.643
        c25.263,29.205,47,47.005,65.161,53.385l-4.271,4.304c-32.041-5.7-61.607-22.099-88.655-49.147l-21.365,12.769
        c0,1.434-1.33,2.94-4.002,4.534c-2.672,1.599-3.85,2.908-3.493,3.981c1.434,4.627,8.743,15.998,21.906,34.062
        c13.174,18.129,19.755,27.711,19.755,28.751c0,3.197-4.101,6.384-12.286,9.586c-8.18,3.193-12.621,6.746-13.333,10.655
        c-0.722,3.198,0.329,7.107,3.198,11.707c2.83,4.627,4.264,7.43,4.264,8.53c0,7.08-6.23,11.509-18.67,13.305
        c-2.163,0.329-8.936,0.526-20.313,0.526c-21.348,0-36.668-4.796-45.927-14.345c-7.468-8.146-13.365-23.046-17.636-44.656
        c-1.434-7.43-3.909-20.729-7.468-39.898c-36.307,9.253-73.698,13.886-112.166,13.886c-23.505,0-48.96-1.764-76.38-5.344
        c4.637,11.76,11.223,31.357,19.798,58.766c-17.806-2.502-39.186-6.055-64.093-10.688c-11.055,16.721-20.506,24.742-28.329,24.026
        c-13.886-1.046-33.837-7.989-59.818-20.795c-6.416-3.198-9.614-8.021-9.614-14.438c0-6.395,4.993-18.161,14.959-35.245
        c9.949-17.077,15.293-29.008,16.009-35.786c0.718-6.072-1.035-14.405-5.311-25.103c-5.344-13.891-8.378-22.941-9.09-27.245h2.146
        l-4.276-12.818c-16.393,17.8-31.351,30.804-44.88,38.989c-15.682,9.61-34.199,15.868-55.548,18.671
        c-4.27-4.238-7.106-6.379-8.541-6.379c26.341-11.41,52.355-29.375,77.973-53.959c1.079-1.073,7.825-5.858,20.314-14.438
        c7.101-4.621,11.371-10.101,12.811-16.518c8.887-35.595,27.048-60.732,54.463-75.335c22.427-11.739,53.953-17.603,94.53-17.603
        c18.518,0,36.154,1.238,52.876,3.717c7.829,2.146,20.307,4.66,37.391,7.491c1.434-14.17,6.422-26.752,14.963-37.741
        C421.377,106.059,432.947,99.669,446.47,99.669z"/>
    <path id="ghost" />
</svg>